<?xml version="1.0" encoding="utf-8"?>
<!-- Generator: Adobe Illustrator 18.0.0, SVG Export Plug-In . SVG Version: 6.00 Build 0)  -->
<!DOCTYPE svg PUBLIC "-//W3C//DTD SVG 1.1//EN" "http://www.w3.org/Graphics/SVG/1.1/DTD/svg11.dtd">
<svg version="1.1" id="Layer_2" xmlns="http://www.w3.org/2000/svg" xmlns:xlink="http://www.w3.org/1999/xlink" x="0px" y="0px"
	 viewBox="0 0 500 300" enable-background="new 0 0 500 300" xml:space="preserve">
<g>
	<g>
		<path fill="#2D2D2D" d="M173.8,85.2c-0.1,0.1-0.2,0.2-0.3,0.3c-0.1,0.1-0.2,0.1-0.4,0.1c-0.2,0-0.3-0.1-0.5-0.2
			c-0.2-0.2-0.5-0.3-0.8-0.5c-0.3-0.2-0.7-0.4-1.1-0.5c-0.4-0.2-1-0.2-1.6-0.2c-0.6,0-1.1,0.1-1.6,0.2c-0.5,0.2-0.8,0.4-1.1,0.7
			c-0.3,0.3-0.5,0.6-0.7,1c-0.2,0.4-0.2,0.8-0.2,1.2c0,0.5,0.1,1,0.4,1.4c0.3,0.4,0.6,0.7,1.1,0.9c0.4,0.3,0.9,0.5,1.5,0.7
			c0.6,0.2,1.1,0.4,1.7,0.6c0.6,0.2,1.2,0.4,1.7,0.7c0.6,0.3,1.1,0.6,1.5,1c0.4,0.4,0.8,0.9,1.1,1.4c0.3,0.6,0.4,1.2,0.4,2.1
			c0,0.9-0.1,1.7-0.4,2.4c-0.3,0.8-0.7,1.4-1.3,2c-0.6,0.6-1.3,1-2.1,1.3c-0.8,0.3-1.7,0.5-2.8,0.5c-1.3,0-2.4-0.2-3.5-0.7
			c-1-0.5-1.9-1.1-2.7-1.9l0.8-1.3c0.1-0.1,0.2-0.2,0.3-0.3c0.1-0.1,0.2-0.1,0.3-0.1c0.2,0,0.4,0.1,0.7,0.3c0.2,0.2,0.6,0.4,0.9,0.7
			c0.4,0.2,0.8,0.5,1.3,0.7c0.5,0.2,1.2,0.3,1.9,0.3c0.6,0,1.2-0.1,1.7-0.3c0.5-0.2,0.9-0.4,1.3-0.7c0.3-0.3,0.6-0.7,0.8-1.1
			c0.2-0.4,0.3-0.9,0.3-1.5c0-0.6-0.1-1.1-0.4-1.5c-0.3-0.4-0.6-0.7-1.1-1c-0.4-0.3-0.9-0.5-1.5-0.7c-0.6-0.2-1.1-0.4-1.7-0.5
			c-0.6-0.2-1.2-0.4-1.7-0.7c-0.6-0.2-1.1-0.6-1.5-1c-0.4-0.4-0.8-0.9-1.1-1.5c-0.3-0.6-0.4-1.3-0.4-2.2c0-0.7,0.1-1.4,0.4-2
			c0.3-0.6,0.7-1.2,1.2-1.7c0.5-0.5,1.1-0.9,1.9-1.2s1.6-0.5,2.6-0.5c1.1,0,2.1,0.2,3,0.5c0.9,0.3,1.7,0.8,2.4,1.5L173.8,85.2z"/>
		<path fill="#2D2D2D" d="M198.6,82.1v2.2h-9.4v6.5h7.6v2.1h-7.6v6.7h9.4v2.2h-12.1V82.1H198.6z"/>
		<path fill="#2D2D2D" d="M213.5,93.5v8.2h-2.6V82.1h5.5c1.2,0,2.3,0.1,3.2,0.4c0.9,0.3,1.7,0.6,2.2,1.1c0.6,0.5,1,1,1.3,1.7
			c0.3,0.7,0.4,1.4,0.4,2.3c0,0.7-0.1,1.3-0.3,1.9c-0.2,0.6-0.5,1.1-1,1.6c-0.4,0.5-0.9,0.9-1.5,1.2c-0.6,0.3-1.3,0.6-2,0.8
			c0.3,0.2,0.6,0.5,0.9,0.8l5.7,7.8H223c-0.5,0-0.8-0.2-1.1-0.6l-5.1-7c-0.2-0.2-0.3-0.4-0.5-0.5c-0.2-0.1-0.5-0.1-0.8-0.1H213.5z
			 M213.5,91.6h2.8c0.8,0,1.5-0.1,2-0.3c0.6-0.2,1.1-0.5,1.5-0.8c0.4-0.3,0.7-0.8,0.9-1.2c0.2-0.5,0.3-1,0.3-1.6
			c0-1.2-0.4-2.1-1.2-2.6c-0.8-0.6-1.9-0.9-3.4-0.9h-2.9V91.6z"/>
		<path fill="#2D2D2D" d="M234.2,82.1h2.1c0.2,0,0.4,0.1,0.6,0.2c0.1,0.1,0.3,0.3,0.3,0.5l5.5,13.9c0.1,0.3,0.2,0.6,0.3,1
			c0.1,0.4,0.2,0.7,0.3,1.1c0.1-0.4,0.2-0.8,0.3-1.1c0.1-0.4,0.2-0.7,0.3-1l5.5-13.9c0.1-0.2,0.2-0.3,0.3-0.4
			c0.2-0.1,0.3-0.2,0.6-0.2h2.1l-8,19.6h-2.4L234.2,82.1z"/>
		<path fill="#2D2D2D" d="M266.5,101.7h-2.7V82.1h2.7V101.7z"/>
		<path fill="#2D2D2D" d="M293.8,97.7c0.1,0,0.3,0.1,0.4,0.2l1,1.1c-0.8,0.9-1.8,1.7-2.9,2.2c-1.1,0.5-2.5,0.8-4.1,0.8
			c-1.4,0-2.7-0.2-3.9-0.7c-1.2-0.5-2.1-1.2-2.9-2.1c-0.8-0.9-1.4-1.9-1.9-3.2c-0.4-1.2-0.7-2.6-0.7-4.1s0.2-2.8,0.7-4.1
			s1.2-2.3,2-3.2c0.9-0.9,1.9-1.6,3.1-2.1c1.2-0.5,2.5-0.7,4-0.7c1.4,0,2.7,0.2,3.7,0.7c1,0.4,2,1.1,2.8,1.8l-0.9,1.2
			c-0.1,0.1-0.1,0.2-0.2,0.2c-0.1,0.1-0.2,0.1-0.4,0.1c-0.1,0-0.2,0-0.4-0.1c-0.1-0.1-0.3-0.2-0.5-0.3c-0.2-0.1-0.4-0.3-0.6-0.4
			c-0.2-0.1-0.5-0.3-0.9-0.4c-0.3-0.1-0.7-0.2-1.2-0.3c-0.4-0.1-1-0.1-1.5-0.1c-1.1,0-2,0.2-2.9,0.5c-0.9,0.4-1.6,0.9-2.3,1.5
			c-0.6,0.7-1.1,1.5-1.5,2.4c-0.4,1-0.5,2-0.5,3.2c0,1.2,0.2,2.3,0.5,3.3c0.4,1,0.8,1.8,1.4,2.4c0.6,0.7,1.3,1.2,2.2,1.5
			c0.8,0.3,1.7,0.5,2.7,0.5c0.6,0,1.1,0,1.6-0.1c0.5-0.1,0.9-0.2,1.3-0.3c0.4-0.1,0.8-0.3,1.1-0.6c0.3-0.2,0.7-0.5,1-0.8
			C293.5,97.7,293.6,97.7,293.8,97.7z"/>
		<path fill="#2D2D2D" d="M319,82.1v2.2h-9.4v6.5h7.6v2.1h-7.6v6.7h9.4v2.2h-12.1V82.1H319z"/>
		<path fill="#2D2D2D" d="M341.1,85.2c-0.1,0.1-0.2,0.2-0.3,0.3c-0.1,0.1-0.2,0.1-0.4,0.1c-0.2,0-0.3-0.1-0.5-0.2
			c-0.2-0.2-0.5-0.3-0.8-0.5c-0.3-0.2-0.7-0.4-1.1-0.5c-0.4-0.2-1-0.2-1.6-0.2c-0.6,0-1.1,0.1-1.6,0.2c-0.5,0.2-0.8,0.4-1.1,0.7
			c-0.3,0.3-0.5,0.6-0.7,1c-0.2,0.4-0.2,0.8-0.2,1.2c0,0.5,0.1,1,0.4,1.4c0.3,0.4,0.6,0.7,1.1,0.9c0.4,0.3,0.9,0.5,1.5,0.7
			c0.6,0.2,1.1,0.4,1.7,0.6c0.6,0.2,1.2,0.4,1.7,0.7c0.6,0.3,1.1,0.6,1.5,1c0.4,0.4,0.8,0.9,1.1,1.4c0.3,0.6,0.4,1.2,0.4,2.1
			c0,0.9-0.1,1.7-0.4,2.4c-0.3,0.8-0.7,1.4-1.3,2c-0.6,0.6-1.3,1-2.1,1.3c-0.8,0.3-1.7,0.5-2.8,0.5c-1.3,0-2.4-0.2-3.5-0.7
			c-1-0.5-1.9-1.1-2.7-1.9l0.8-1.3c0.1-0.1,0.2-0.2,0.3-0.3c0.1-0.1,0.2-0.1,0.3-0.1c0.2,0,0.4,0.1,0.7,0.3c0.2,0.2,0.6,0.4,0.9,0.7
			c0.4,0.2,0.8,0.5,1.3,0.7c0.5,0.2,1.2,0.3,1.9,0.3c0.6,0,1.2-0.1,1.7-0.3c0.5-0.2,0.9-0.4,1.3-0.7c0.3-0.3,0.6-0.7,0.8-1.1
			c0.2-0.4,0.3-0.9,0.3-1.5c0-0.6-0.1-1.1-0.4-1.5c-0.3-0.4-0.6-0.7-1.1-1c-0.4-0.3-0.9-0.5-1.5-0.7c-0.6-0.2-1.1-0.4-1.7-0.5
			c-0.6-0.2-1.2-0.4-1.7-0.7s-1.1-0.6-1.5-1c-0.4-0.4-0.8-0.9-1.1-1.5c-0.3-0.6-0.4-1.3-0.4-2.2c0-0.7,0.1-1.4,0.4-2
			c0.3-0.6,0.7-1.2,1.2-1.7c0.5-0.5,1.1-0.9,1.9-1.2c0.8-0.3,1.6-0.5,2.6-0.5c1.1,0,2.1,0.2,3,0.5c0.9,0.3,1.7,0.8,2.4,1.5
			L341.1,85.2z"/>
	</g>
	
		<rect x="114.4" y="1.5" transform="matrix(0.8012 0.5984 -0.5984 0.8012 35.4702 -65.7292)" fill="#2D2D2D" width="4.6" height="38"/>
	<rect x="99.9" y="14" transform="matrix(0.895 0.446 -0.446 0.895 21.0584 -43.1678)" fill="#2D2D2D" width="4.6" height="18.3"/>
	
		<rect x="92.1" y="0.1" transform="matrix(0.9602 0.2792 -0.2792 0.9602 7.7917 -25.7666)" fill="#2D2D2D" width="4.6" height="28.8"/>
	
		<rect x="80.8" y="8.4" transform="matrix(0.9947 0.1031 -0.1031 0.9947 2.2555 -8.4707)" fill="#2D2D2D" width="4.6" height="18.3"/>
	
		<rect x="62.7" y="14" transform="matrix(7.637811e-02 0.9971 -0.9971 7.637811e-02 83.6826 -57.6486)" fill="#2D2D2D" width="20.5" height="4.6"/>
	
		<rect x="56.7" y="18.9" transform="matrix(0.2532 0.9674 -0.9674 0.2532 68.0404 -45.8179)" fill="#2D2D2D" width="14" height="4.6"/>
	
		<rect x="50.9" y="24.2" transform="matrix(0.4217 0.9067 -0.9067 0.4217 56.1987 -35.0771)" fill="#2D2D2D" width="9.4" height="4.6"/>
	
		<rect x="47.4" y="31.2" transform="matrix(0.5768 0.8169 -0.8169 0.5768 48.2022 -26.0755)" fill="#2D2D2D" width="3.7" height="4.6"/>
	
		<rect x="31" y="32.8" transform="matrix(0.7136 0.7006 -0.7006 0.7136 35.6564 -16.9511)" fill="#2D2D2D" width="15.1" height="4.6"/>
	<polygon fill="#2D2D2D" points="37.3,48.8 20.7,37.4 23.3,33.6 39.9,45 	"/>
	
		<rect x="23.6" y="49.6" transform="matrix(0.9142 0.4052 -0.4052 0.9142 23.5434 -7.4229)" fill="#2D2D2D" width="11.5" height="4.6"/>
	<polygon fill="#2D2D2D" points="0.2,56.9 31.3,64.4 32.4,59.9 1.3,52.4 	"/>
	
		<rect x="7.4" y="67.5" transform="matrix(0.9983 5.812820e-02 -5.812820e-02 0.9983 4.0881 -0.9876)" fill="#2D2D2D" width="23.2" height="4.6"/>
	
		<rect x="17.3" y="68.9" transform="matrix(0.1206 0.9927 -0.9927 0.1206 96.8841 51.0333)" fill="#2D2D2D" width="4.6" height="22.6"/>
	
		<rect x="27.8" y="85.2" transform="matrix(0.296 0.9552 -0.9552 0.296 105.0688 33.0515)" fill="#2D2D2D" width="4.6" height="5.3"/>
	
		<rect x="25.1" y="89.7" transform="matrix(0.4623 0.8867 -0.8867 0.4623 102.6593 29.0582)" fill="#2D2D2D" width="4.6" height="19"/>
	
		<rect x="29.9" y="97.9" transform="matrix(0.6129 0.7901 -0.7901 0.6129 97.9133 16.3946)" fill="#2D2D2D" width="4.6" height="20.5"/>
	
		<rect x="37.1" y="105.4" transform="matrix(0.7444 0.6678 -0.6678 0.7444 87.1377 3.2224)" fill="#2D2D2D" width="4.6" height="20"/>
	
		<rect x="48" y="112.3" transform="matrix(0.8515 0.5244 -0.5244 0.8515 68.7939 -9.0287)" fill="#2D2D2D" width="4.6" height="9.2"/>
	
		<rect x="54.7" y="116.1" transform="matrix(0.9315 0.3638 -0.3638 0.9315 49.4216 -12.1587)" fill="#2D2D2D" width="4.6" height="18"/>
	
		<rect x="64.4" y="118.9" transform="matrix(0.9815 0.1915 -0.1915 0.9815 25.5877 -10.4237)" fill="#2D2D2D" width="4.6" height="16.5"/>
	
		<rect x="74.3" y="119.9" transform="matrix(0.9999 1.338563e-02 -1.338563e-02 0.9999 1.6893 -1.0137)" fill="#2D2D2D" width="4.6" height="11.5"/>
	
		<rect x="75.7" y="128" transform="matrix(0.1656 0.9862 -0.9862 0.1656 200.9229 23.0454)" fill="#2D2D2D" width="22.2" height="4.6"/>
	
		<rect x="88.7" y="121.2" transform="matrix(0.3388 0.9408 -0.9408 0.3388 179.2645 -8.0913)" fill="#2D2D2D" width="13.4" height="4.6"/>
	<polygon fill="#2D2D2D" points="98.7,114.8 115.4,143.2 119.4,140.9 102.7,112.5 	"/>
	<polygon fill="#2D2D2D" points="108.4,113 105.9,110.4 109.2,107.2 111.8,109.8 	"/>
	
		<rect x="111.8" y="105.2" transform="matrix(0.7735 0.6338 -0.6338 0.7735 95.1529 -51.1708)" fill="#2D2D2D" width="14.8" height="4.6"/>
	
		<rect x="117.3" y="96.9" transform="matrix(0.8742 0.4855 -0.4855 0.8742 63.7352 -47.7314)" fill="#2D2D2D" width="13.4" height="4.6"/>
	
		<rect x="121.4" y="86.9" transform="matrix(0.9469 0.3215 -0.3215 0.9469 35.2849 -35.2523)" fill="#2D2D2D" width="6" height="4.6"/>
	
		<rect x="123.4" y="79.1" transform="matrix(0.9891 0.1473 -0.1473 0.9891 13.4431 -18.618)" fill="#2D2D2D" width="17.9" height="4.6"/>
	
		<rect x="127.4" y="65.9" transform="matrix(3.180619e-02 0.9995 -0.9995 3.180619e-02 197.1027 -60.3575)" fill="#2D2D2D" width="4.6" height="11.4"/>
	
		<rect x="127.7" y="54.7" transform="matrix(0.2096 0.9778 -0.9778 0.2096 163.3218 -78.2131)" fill="#2D2D2D" width="4.6" height="14.4"/>
	
		<rect x="122.8" y="48.6" transform="matrix(0.3809 0.9246 -0.9246 0.3809 126.9346 -82.4898)" fill="#2D2D2D" width="4.6" height="9.8"/>
	
		<rect x="126.4" y="26" transform="matrix(0.5395 0.842 -0.842 0.5395 93.1677 -89.7738)" fill="#2D2D2D" width="4.6" height="28.5"/>
	
		<rect x="111" y="37.2" transform="matrix(0.6817 0.7316 -0.7316 0.6817 65.0923 -70.3004)" fill="#2D2D2D" width="4.6" height="4.9"/>
	<g>
		<g>
			<polygon fill="#2D2D2D" points="75.6,73.3 73.3,44.4 76.7,44.1 79,73.1 75.6,73.3 			"/>
		</g>
		<g>
			<polygon fill="#2D2D2D" points="75.7,73.6 68.3,45.6 71.5,44.7 78.9,72.8 75.7,73.6 			"/>
		</g>
		<g>
			<polygon fill="#2D2D2D" points="73.2,68.4 63.5,47.6 66.6,46.2 76.3,67 73.2,68.4 			"/>
		</g>
		<g>
			<polygon fill="#2D2D2D" points="72,68.6 59.2,50.5 61.9,48.5 74.8,66.6 72,68.6 			"/>
		</g>
		<g>
			<polygon fill="#2D2D2D" points="76.2,74.4 55.4,54.1 57.8,51.7 78.5,72 76.2,74.4 			"/>
		</g>
		<g>
			<polygon fill="#2D2D2D" points="76.4,74.5 52.4,58.3 54.3,55.5 78.3,71.8 76.4,74.5 			"/>
		</g>
		<g>
			<polygon fill="#2D2D2D" points="76.7,74.7 50.2,63 51.5,59.9 78,71.6 76.7,74.7 			"/>
		</g>
		<g>
			<polygon fill="#2D2D2D" points="77,74.8 48.8,68 49.6,64.7 77.8,71.5 77,74.8 			"/>
		</g>
		<g>
			<polygon fill="#2D2D2D" points="77.3,74.8 48.3,73.1 48.5,69.8 77.5,71.4 77.3,74.8 			"/>
		</g>
		<g>
			<polygon fill="#2D2D2D" points="48.8,78.3 48.4,75 77.2,71.4 77.6,74.8 48.8,78.3 			"/>
		</g>
		<g>
			<polygon fill="#2D2D2D" points="50.2,83.3 49.2,80.1 76.9,71.5 77.9,74.7 50.2,83.3 			"/>
		</g>
		<g>
			<polygon fill="#2D2D2D" points="52.4,88 50.9,85 76.6,71.6 78.1,74.6 52.4,88 			"/>
		</g>
		<g>
			<polygon fill="#2D2D2D" points="55.5,92.2 53.4,89.5 76.3,71.7 78.4,74.4 55.5,92.2 			"/>
		</g>
		<g>
			<polygon fill="#2D2D2D" points="59.2,95.7 56.7,93.5 76.1,71.9 78.6,74.2 59.2,95.7 			"/>
		</g>
		<g>
			<polygon fill="#2D2D2D" points="63.6,98.6 60.7,96.8 75.9,72.1 78.8,73.9 63.6,98.6 			"/>
		</g>
		<g>
			<polygon fill="#2D2D2D" points="68.3,100.6 65.2,99.4 75.7,72.4 78.9,73.6 68.3,100.6 			"/>
		</g>
		<g>
			<polygon fill="#2D2D2D" points="73.4,101.8 70.1,101.2 75.6,72.7 78.9,73.3 73.4,101.8 			"/>
		</g>
		<g>
			<polygon fill="#2D2D2D" points="78.6,102 75.2,102 75.6,73 79,73 78.6,102 			"/>
		</g>
		<g>
			<polygon fill="#2D2D2D" points="80.4,101.9 75.6,73.3 78.9,72.7 83.7,101.3 80.4,101.9 			"/>
		</g>
		<g>
			<polygon fill="#2D2D2D" points="85.5,100.9 75.7,73.6 78.8,72.4 88.6,99.7 85.5,100.9 			"/>
		</g>
		<g>
			<polygon fill="#2D2D2D" points="90.3,99 75.8,73.9 78.7,72.2 93.2,97.3 90.3,99 			"/>
		</g>
		<g>
			<polygon fill="#2D2D2D" points="94.7,96.2 75.9,74.1 78.5,71.9 97.3,94 94.7,96.2 			"/>
		</g>
		<g>
			<polygon fill="#2D2D2D" points="98.6,92.7 76.1,74.3 78.3,71.7 100.7,90.1 98.6,92.7 			"/>
		</g>
		<g>
			<polygon fill="#2D2D2D" points="101.7,88.6 76.4,74.5 78,71.6 103.4,85.7 101.7,88.6 			"/>
		</g>
		<g>
			<polygon fill="#2D2D2D" points="104.1,84 76.7,74.7 77.7,71.5 105.2,80.8 104.1,84 			"/>
		</g>
		<g>
			<polygon fill="#2D2D2D" points="105.6,79.1 76.9,74.7 77.4,71.4 106.1,75.7 105.6,79.1 			"/>
		</g>
		<g>
			<polygon fill="#2D2D2D" points="77.2,74.8 77.1,71.4 106.1,70.5 106.2,73.9 77.2,74.8 			"/>
		</g>
		<g>
			<polygon fill="#2D2D2D" points="77.5,74.8 76.8,71.5 105.2,65.4 105.9,68.7 77.5,74.8 			"/>
		</g>
		<g>
			<polygon fill="#2D2D2D" points="77.8,74.7 76.6,71.6 103.4,60.6 104.7,63.7 77.8,74.7 			"/>
		</g>
		<g>
			<polygon fill="#2D2D2D" points="78.1,74.6 76.3,71.7 100.7,56.1 102.5,58.9 78.1,74.6 			"/>
		</g>
		<g>
			<polygon fill="#2D2D2D" points="78.4,74.4 76.1,71.9 97.3,52.2 99.6,54.7 78.4,74.4 			"/>
		</g>
		<g>
			<polygon fill="#2D2D2D" points="78.6,74.2 75.9,72.2 93.3,49 96,51 78.6,74.2 			"/>
		</g>
		<g>
			<polygon fill="#2D2D2D" points="78.7,73.9 75.7,72.4 88.7,46.5 91.7,48 78.7,73.9 			"/>
		</g>
		<g>
			<polygon fill="#2D2D2D" points="78.9,73.7 75.6,72.7 83.8,44.9 87,45.8 78.9,73.7 			"/>
		</g>
		<g>
			<polygon fill="#2D2D2D" points="78.9,73.4 75.6,73 78.6,44.2 82,44.5 78.9,73.4 			"/>
		</g>
	</g>
	<g>
		<path fill="#2D2D2D" d="M182.7,57c0,1.4-0.2,2.8-0.7,4c-0.5,1.2-1.2,2.3-2.1,3.2s-2,1.6-3.3,2.2c-1.3,0.5-2.7,0.8-4.2,0.8
			c-1.6,0-3-0.3-4.2-0.8c-1.3-0.5-2.4-1.2-3.3-2.2c-0.9-0.9-1.6-2-2.1-3.2c-0.5-1.2-0.7-2.6-0.7-4c0-1.4,0.2-2.8,0.7-4
			c0.5-1.2,1.2-2.3,2.1-3.2c0.9-0.9,2-1.6,3.3-2.2c1.3-0.5,2.7-0.8,4.2-0.8c1.6,0,3,0.3,4.2,0.8c1.3,0.5,2.4,1.2,3.3,2.2
			c0.9,0.9,1.6,2,2.1,3.2C182.4,54.2,182.7,55.5,182.7,57z M177.9,57c0-1-0.1-1.9-0.4-2.7c-0.3-0.8-0.6-1.5-1.1-2
			c-0.5-0.5-1.1-1-1.8-1.3c-0.7-0.3-1.5-0.4-2.4-0.4c-0.9,0-1.7,0.1-2.4,0.4c-0.7,0.3-1.3,0.7-1.8,1.3c-0.5,0.5-0.8,1.2-1.1,2
			c-0.3,0.8-0.4,1.7-0.4,2.7c0,1,0.1,1.9,0.4,2.7c0.3,0.8,0.6,1.5,1.1,2c0.5,0.5,1.1,1,1.8,1.3c0.7,0.3,1.5,0.4,2.4,0.4
			c0.9,0,1.7-0.1,2.4-0.4c0.7-0.3,1.3-0.7,1.8-1.3c0.5-0.5,0.8-1.2,1.1-2C177.8,58.9,177.9,58,177.9,57z"/>
		<path fill="#2D2D2D" d="M195.8,60.3V67h-4.6V47h7c1.4,0,2.6,0.2,3.6,0.5c1,0.3,1.8,0.8,2.5,1.4c0.7,0.6,1.1,1.3,1.4,2.1
			c0.3,0.8,0.5,1.7,0.5,2.6c0,1-0.2,1.9-0.5,2.7c-0.3,0.8-0.8,1.5-1.5,2.1c-0.7,0.6-1.5,1.1-2.5,1.4c-1,0.3-2.2,0.5-3.6,0.5H195.8z
			 M195.8,56.8h2.4c1.2,0,2.1-0.3,2.6-0.9c0.5-0.6,0.8-1.4,0.8-2.4c0-0.5-0.1-0.9-0.2-1.2c-0.1-0.4-0.3-0.7-0.6-1
			c-0.3-0.3-0.6-0.5-1.1-0.6c-0.4-0.1-0.9-0.2-1.5-0.2h-2.4V56.8z"/>
		<path fill="#2D2D2D" d="M227.8,47v3.6h-8.2v4.7h6.3v3.4h-6.3v4.8h8.2V67H215V47H227.8z"/>
		<path fill="#2D2D2D" d="M239.7,47c0.1,0,0.3,0.1,0.4,0.1c0.1,0.1,0.2,0.1,0.3,0.2c0.1,0.1,0.2,0.2,0.3,0.4l9.5,12
			c0-0.4-0.1-0.8-0.1-1.1c0-0.4,0-0.7,0-1V47h4.1v20h-2.4c-0.4,0-0.7-0.1-0.9-0.2c-0.2-0.1-0.5-0.3-0.7-0.6l-9.4-11.9
			c0,0.3,0.1,0.7,0.1,1c0,0.3,0,0.6,0,0.9V67h-4.1V47h2.4C239.4,47,239.6,47,239.7,47z"/>
		<path fill="#2D2D2D" d="M280,55.1h0.7c0.7,0,1.2-0.2,1.5-0.6l4.5-6.5c0.2-0.4,0.5-0.6,0.8-0.7c0.3-0.1,0.7-0.2,1.2-0.2h4l-5.9,8.1
			c-0.2,0.3-0.4,0.5-0.7,0.7c-0.2,0.2-0.5,0.4-0.7,0.5c0.3,0.1,0.7,0.3,1,0.5c0.3,0.2,0.6,0.5,0.8,0.9l6,9.3h-4.1
			c-0.3,0-0.5,0-0.7-0.1c-0.2,0-0.3-0.1-0.5-0.2c-0.1-0.1-0.3-0.2-0.4-0.3c-0.1-0.1-0.2-0.2-0.3-0.4l-4.5-6.9
			c-0.2-0.3-0.4-0.4-0.6-0.5c-0.3-0.1-0.6-0.2-1-0.2H280V67h-4.6V47h4.6V55.1z"/>
		<path fill="#2D2D2D" d="M304.2,47c0.1,0,0.3,0.1,0.4,0.1c0.1,0.1,0.2,0.1,0.3,0.2c0.1,0.1,0.2,0.2,0.3,0.4l9.5,12
			c0-0.4-0.1-0.8-0.1-1.1c0-0.4,0-0.7,0-1V47h4.1v20h-2.4c-0.4,0-0.7-0.1-0.9-0.2s-0.5-0.3-0.7-0.6l-9.4-11.9c0,0.3,0.1,0.7,0.1,1
			c0,0.3,0,0.6,0,0.9V67h-4.1V47h2.4C303.9,47,304.1,47,304.2,47z"/>
		<path fill="#2D2D2D" d="M348,57c0,1.4-0.2,2.8-0.7,4c-0.5,1.2-1.2,2.3-2.1,3.2c-0.9,0.9-2,1.6-3.3,2.2s-2.7,0.8-4.2,0.8
			c-1.6,0-3-0.3-4.2-0.8c-1.3-0.5-2.4-1.2-3.3-2.2c-0.9-0.9-1.6-2-2.1-3.2c-0.5-1.2-0.7-2.6-0.7-4c0-1.4,0.2-2.8,0.7-4
			c0.5-1.2,1.2-2.3,2.1-3.2c0.9-0.9,2-1.6,3.3-2.2c1.3-0.5,2.7-0.8,4.2-0.8c1.6,0,3,0.3,4.2,0.8c1.3,0.5,2.4,1.2,3.3,2.2
			c0.9,0.9,1.6,2,2.1,3.2C347.7,54.2,348,55.5,348,57z M343.2,57c0-1-0.1-1.9-0.4-2.7c-0.3-0.8-0.6-1.5-1.1-2
			c-0.5-0.5-1.1-1-1.8-1.3c-0.7-0.3-1.5-0.4-2.4-0.4c-0.9,0-1.7,0.1-2.4,0.4c-0.7,0.3-1.3,0.7-1.8,1.3c-0.5,0.5-0.8,1.2-1.1,2
			c-0.3,0.8-0.4,1.7-0.4,2.7c0,1,0.1,1.9,0.4,2.7c0.3,0.8,0.6,1.5,1.1,2c0.5,0.5,1.1,1,1.8,1.3c0.7,0.3,1.5,0.4,2.4,0.4
			c0.9,0,1.7-0.1,2.4-0.4c0.7-0.3,1.3-0.7,1.8-1.3c0.5-0.5,0.8-1.2,1.1-2C343.1,58.9,343.2,58,343.2,57z"/>
		<path fill="#2D2D2D" d="M355,47h3.9c0.4,0,0.7,0.1,1,0.3c0.3,0.2,0.4,0.4,0.5,0.7l2.7,10.4c0.1,0.3,0.2,0.7,0.3,1.1
			c0.1,0.4,0.2,0.8,0.2,1.2c0.1-0.4,0.2-0.8,0.3-1.2c0.1-0.4,0.2-0.7,0.3-1.1l3.2-10.4c0.1-0.3,0.3-0.5,0.5-0.7
			c0.3-0.2,0.6-0.3,1-0.3h1.4c0.4,0,0.7,0.1,1,0.3s0.4,0.4,0.5,0.7l3.2,10.4c0.1,0.3,0.2,0.7,0.3,1c0.1,0.4,0.2,0.7,0.3,1.2
			c0.1-0.4,0.1-0.8,0.2-1.2c0.1-0.4,0.2-0.7,0.2-1l2.7-10.4c0.1-0.3,0.2-0.5,0.5-0.7c0.3-0.2,0.6-0.3,1-0.3h3.6l-6.2,20h-4.2
			L370,54.6c-0.1-0.2-0.1-0.4-0.2-0.6c-0.1-0.2-0.1-0.5-0.2-0.7c-0.1,0.3-0.1,0.5-0.2,0.7c-0.1,0.2-0.1,0.4-0.2,0.6L365.3,67h-4.2
			L355,47z"/>
		<path fill="#2D2D2D" d="M396.8,63.3h7.4V67h-12V47h4.6V63.3z"/>
		<path fill="#2D2D2D" d="M425.5,47v3.6h-8.2v4.7h6.3v3.4h-6.3v4.8h8.2V67h-12.9V47H425.5z"/>
		<path fill="#2D2D2D" d="M452.6,57c0,1.4-0.2,2.8-0.7,4c-0.5,1.2-1.2,2.3-2.1,3.2c-0.9,0.9-2,1.6-3.3,2.1c-1.3,0.5-2.7,0.7-4.2,0.7
			h-7.8V47h7.8c1.6,0,3,0.3,4.2,0.8c1.3,0.5,2.4,1.2,3.3,2.1c0.9,0.9,1.6,1.9,2.1,3.2C452.3,54.2,452.6,55.5,452.6,57z M447.8,57
			c0-1-0.1-1.9-0.4-2.7c-0.3-0.8-0.6-1.5-1.1-2c-0.5-0.6-1.1-1-1.8-1.3c-0.7-0.3-1.5-0.4-2.4-0.4h-3.1v12.8h3.1
			c0.9,0,1.7-0.1,2.4-0.4c0.7-0.3,1.3-0.7,1.8-1.3c0.5-0.6,0.8-1.2,1.1-2C447.7,58.9,447.8,58,447.8,57z"/>
		<path fill="#2D2D2D" d="M470.5,63.6c0.6,0,1.2-0.1,1.7-0.2c0.5-0.1,1-0.3,1.4-0.4v-3h-2c-0.3,0-0.5-0.1-0.7-0.2
			c-0.2-0.2-0.2-0.4-0.2-0.6v-2.5h7.1v8.4c-0.5,0.4-1,0.7-1.6,1c-0.6,0.3-1.1,0.5-1.8,0.7c-0.6,0.2-1.3,0.3-2,0.4
			c-0.7,0.1-1.5,0.1-2.3,0.1c-1.5,0-2.8-0.3-4.1-0.8c-1.2-0.5-2.3-1.2-3.2-2.1c-0.9-0.9-1.6-2-2.1-3.2c-0.5-1.2-0.8-2.6-0.8-4.1
			c0-1.5,0.2-2.9,0.7-4.1s1.2-2.3,2.1-3.2c0.9-0.9,2-1.6,3.3-2.1c1.3-0.5,2.8-0.8,4.4-0.8c0.8,0,1.6,0.1,2.3,0.2
			c0.7,0.1,1.4,0.3,2,0.6c0.6,0.2,1.2,0.5,1.7,0.8c0.5,0.3,1,0.7,1.4,1.1l-1.3,2c-0.1,0.2-0.3,0.3-0.5,0.5c-0.2,0.1-0.4,0.2-0.6,0.2
			c-0.3,0-0.6-0.1-0.8-0.3c-0.4-0.2-0.7-0.4-1-0.6c-0.3-0.2-0.7-0.3-1-0.4c-0.3-0.1-0.7-0.2-1.1-0.2c-0.4,0-0.8-0.1-1.3-0.1
			c-0.9,0-1.6,0.2-2.3,0.5c-0.7,0.3-1.3,0.7-1.8,1.3c-0.5,0.6-0.9,1.2-1.1,2c-0.3,0.8-0.4,1.7-0.4,2.6c0,1.1,0.1,2,0.4,2.8
			c0.3,0.8,0.7,1.5,1.2,2.1c0.5,0.6,1.1,1,1.8,1.3C468.9,63.5,469.7,63.6,470.5,63.6z"/>
		<path fill="#2D2D2D" d="M499.8,47v3.6h-8.2v4.7h6.3v3.4h-6.3v4.8h8.2V67h-12.9V47H499.8z"/>
	</g>
</g>
<g>
	<g>
		<path fill="#FFFFFF" d="M173.8,235.2c-0.1,0.1-0.2,0.2-0.3,0.3c-0.1,0.1-0.2,0.1-0.4,0.1c-0.2,0-0.3-0.1-0.5-0.2
			c-0.2-0.2-0.5-0.3-0.8-0.5c-0.3-0.2-0.7-0.4-1.1-0.5c-0.4-0.2-1-0.2-1.6-0.2c-0.6,0-1.1,0.1-1.6,0.2c-0.5,0.2-0.8,0.4-1.1,0.7
			c-0.3,0.3-0.5,0.6-0.7,1c-0.2,0.4-0.2,0.8-0.2,1.2c0,0.5,0.1,1,0.4,1.4c0.3,0.4,0.6,0.7,1.1,0.9c0.4,0.3,0.9,0.5,1.5,0.7
			c0.6,0.2,1.1,0.4,1.7,0.6c0.6,0.2,1.2,0.4,1.7,0.7c0.6,0.3,1.1,0.6,1.5,1c0.4,0.4,0.8,0.9,1.1,1.4c0.3,0.6,0.4,1.2,0.4,2.1
			c0,0.9-0.1,1.7-0.4,2.4c-0.3,0.8-0.7,1.4-1.3,2c-0.6,0.6-1.3,1-2.1,1.3c-0.8,0.3-1.7,0.5-2.8,0.5c-1.3,0-2.4-0.2-3.5-0.7
			c-1-0.5-1.9-1.1-2.7-1.9l0.8-1.3c0.1-0.1,0.2-0.2,0.3-0.3c0.1-0.1,0.2-0.1,0.3-0.1c0.2,0,0.4,0.1,0.7,0.3c0.2,0.2,0.6,0.4,0.9,0.7
			c0.4,0.2,0.8,0.5,1.3,0.7c0.5,0.2,1.2,0.3,1.9,0.3c0.6,0,1.2-0.1,1.7-0.3c0.5-0.2,0.9-0.4,1.3-0.7c0.3-0.3,0.6-0.7,0.8-1.1
			c0.2-0.4,0.3-0.9,0.3-1.5c0-0.6-0.1-1.1-0.4-1.5c-0.3-0.4-0.6-0.7-1.1-1c-0.4-0.3-0.9-0.5-1.5-0.7c-0.6-0.2-1.1-0.4-1.7-0.5
			c-0.6-0.2-1.2-0.4-1.7-0.7c-0.6-0.2-1.1-0.6-1.5-1c-0.4-0.4-0.8-0.9-1.1-1.5c-0.3-0.6-0.4-1.3-0.4-2.2c0-0.7,0.1-1.4,0.4-2
			c0.3-0.6,0.7-1.2,1.2-1.7c0.5-0.5,1.1-0.9,1.9-1.2c0.8-0.3,1.6-0.5,2.6-0.5c1.1,0,2.1,0.2,3,0.5c0.9,0.3,1.7,0.8,2.4,1.5
			L173.8,235.2z"/>
		<path fill="#FFFFFF" d="M198.6,232.1v2.2h-9.4v6.5h7.6v2.1h-7.6v6.7h9.4v2.2h-12.1v-19.6H198.6z"/>
		<path fill="#FFFFFF" d="M213.5,243.5v8.2h-2.6v-19.6h5.5c1.2,0,2.3,0.1,3.2,0.4c0.9,0.3,1.7,0.6,2.2,1.1c0.6,0.5,1,1,1.3,1.7
			c0.3,0.7,0.4,1.4,0.4,2.3c0,0.7-0.1,1.3-0.3,1.9c-0.2,0.6-0.5,1.1-1,1.6c-0.4,0.5-0.9,0.9-1.5,1.2c-0.6,0.3-1.3,0.6-2,0.8
			c0.3,0.2,0.6,0.5,0.9,0.8l5.7,7.8H223c-0.5,0-0.8-0.2-1.1-0.6l-5.1-7c-0.2-0.2-0.3-0.4-0.5-0.5c-0.2-0.1-0.5-0.1-0.8-0.1H213.5z
			 M213.5,241.6h2.8c0.8,0,1.5-0.1,2-0.3c0.6-0.2,1.1-0.5,1.5-0.8c0.4-0.3,0.7-0.8,0.9-1.2c0.2-0.5,0.3-1,0.3-1.6
			c0-1.2-0.4-2.1-1.2-2.6c-0.8-0.6-1.9-0.9-3.4-0.9h-2.9V241.6z"/>
		<path fill="#FFFFFF" d="M234.2,232.1h2.1c0.2,0,0.4,0.1,0.6,0.2c0.1,0.1,0.3,0.3,0.3,0.5l5.5,13.9c0.1,0.3,0.2,0.6,0.3,1
			c0.1,0.4,0.2,0.7,0.3,1.1c0.1-0.4,0.2-0.8,0.3-1.1c0.1-0.4,0.2-0.7,0.3-1l5.5-13.9c0.1-0.2,0.2-0.3,0.3-0.4
			c0.2-0.1,0.3-0.2,0.6-0.2h2.1l-8,19.6h-2.4L234.2,232.1z"/>
		<path fill="#FFFFFF" d="M266.5,251.7h-2.7v-19.6h2.7V251.7z"/>
		<path fill="#FFFFFF" d="M293.8,247.7c0.1,0,0.3,0.1,0.4,0.2l1,1.1c-0.8,0.9-1.8,1.7-2.9,2.2c-1.1,0.5-2.5,0.8-4.1,0.8
			c-1.4,0-2.7-0.2-3.9-0.7c-1.2-0.5-2.1-1.2-2.9-2.1c-0.8-0.9-1.4-1.9-1.9-3.2c-0.4-1.2-0.7-2.6-0.7-4.1c0-1.5,0.2-2.8,0.7-4.1
			c0.5-1.2,1.2-2.3,2-3.2c0.9-0.9,1.9-1.6,3.1-2.1c1.2-0.5,2.5-0.7,4-0.7c1.4,0,2.7,0.2,3.7,0.7c1,0.4,2,1.1,2.8,1.8l-0.9,1.2
			c-0.1,0.1-0.1,0.2-0.2,0.2c-0.1,0.1-0.2,0.1-0.4,0.1c-0.1,0-0.2,0-0.4-0.1c-0.1-0.1-0.3-0.2-0.5-0.3c-0.2-0.1-0.4-0.3-0.6-0.4
			c-0.2-0.1-0.5-0.3-0.9-0.4c-0.3-0.1-0.7-0.2-1.2-0.3c-0.4-0.1-1-0.1-1.5-0.1c-1.1,0-2,0.2-2.9,0.5c-0.9,0.4-1.6,0.9-2.3,1.5
			c-0.6,0.7-1.1,1.5-1.5,2.4c-0.4,1-0.5,2-0.5,3.2c0,1.2,0.2,2.3,0.5,3.3c0.4,1,0.8,1.8,1.4,2.4c0.6,0.7,1.3,1.2,2.2,1.5
			c0.8,0.3,1.7,0.5,2.7,0.5c0.6,0,1.1,0,1.6-0.1c0.5-0.1,0.9-0.2,1.3-0.3c0.4-0.1,0.8-0.3,1.1-0.6c0.3-0.2,0.7-0.5,1-0.8
			C293.5,247.7,293.6,247.7,293.8,247.7z"/>
		<path fill="#FFFFFF" d="M319,232.1v2.2h-9.4v6.5h7.6v2.1h-7.6v6.7h9.4v2.2h-12.1v-19.6H319z"/>
		<path fill="#FFFFFF" d="M341.1,235.2c-0.1,0.1-0.2,0.2-0.3,0.3c-0.1,0.1-0.2,0.1-0.4,0.1c-0.2,0-0.3-0.1-0.5-0.2
			c-0.2-0.2-0.5-0.3-0.8-0.5c-0.3-0.2-0.7-0.4-1.1-0.5c-0.4-0.2-1-0.2-1.6-0.2c-0.6,0-1.1,0.1-1.6,0.2c-0.5,0.2-0.8,0.4-1.1,0.7
			c-0.3,0.3-0.5,0.6-0.7,1c-0.2,0.4-0.2,0.8-0.2,1.2c0,0.5,0.1,1,0.4,1.4c0.3,0.4,0.6,0.7,1.1,0.9c0.4,0.3,0.9,0.5,1.5,0.7
			c0.6,0.2,1.1,0.4,1.7,0.6c0.6,0.2,1.2,0.4,1.7,0.7c0.6,0.3,1.1,0.6,1.5,1c0.4,0.4,0.8,0.9,1.1,1.4c0.3,0.6,0.4,1.2,0.4,2.1
			c0,0.9-0.1,1.7-0.4,2.4c-0.3,0.8-0.7,1.4-1.3,2c-0.6,0.6-1.3,1-2.1,1.3c-0.8,0.3-1.7,0.5-2.8,0.5c-1.3,0-2.4-0.2-3.5-0.7
			c-1-0.5-1.9-1.1-2.7-1.9l0.8-1.3c0.1-0.1,0.2-0.2,0.3-0.3c0.1-0.1,0.2-0.1,0.3-0.1c0.2,0,0.4,0.1,0.7,0.3c0.2,0.2,0.6,0.4,0.9,0.7
			c0.4,0.2,0.8,0.5,1.3,0.7c0.5,0.2,1.2,0.3,1.9,0.3c0.6,0,1.2-0.1,1.7-0.3c0.5-0.2,0.9-0.4,1.3-0.7c0.3-0.3,0.6-0.7,0.8-1.1
			c0.2-0.4,0.3-0.9,0.3-1.5c0-0.6-0.1-1.1-0.4-1.5c-0.3-0.4-0.6-0.7-1.1-1c-0.4-0.3-0.9-0.5-1.5-0.7c-0.6-0.2-1.1-0.4-1.7-0.5
			c-0.6-0.2-1.2-0.4-1.7-0.7c-0.6-0.2-1.1-0.6-1.5-1c-0.4-0.4-0.8-0.9-1.1-1.5c-0.3-0.6-0.4-1.3-0.4-2.2c0-0.7,0.1-1.4,0.4-2
			c0.3-0.6,0.7-1.2,1.2-1.7c0.5-0.5,1.1-0.9,1.9-1.2c0.8-0.3,1.6-0.5,2.6-0.5c1.1,0,2.1,0.2,3,0.5c0.9,0.3,1.7,0.8,2.4,1.5
			L341.1,235.2z"/>
	</g>
	
		<rect x="114.4" y="151.5" transform="matrix(0.8012 0.5984 -0.5984 0.8012 125.218 -35.9147)" fill="#FFFFFF" width="4.6" height="38"/>
	<rect x="99.9" y="164" transform="matrix(0.895 0.446 -0.446 0.895 87.9529 -27.424)" fill="#FFFFFF" width="4.6" height="18.3"/>
	
		<rect x="92.1" y="150.1" transform="matrix(0.9602 0.2792 -0.2792 0.9602 49.6614 -19.804)" fill="#FFFFFF" width="4.6" height="28.8"/>
	
		<rect x="80.8" y="158.4" transform="matrix(0.9947 0.1031 -0.1031 0.9947 17.7199 -7.6714)" fill="#FFFFFF" width="4.6" height="18.3"/>
	
		<rect x="62.7" y="164" transform="matrix(7.637811e-02 0.9971 -0.9971 7.637811e-02 233.2314 80.8825)" fill="#FFFFFF" width="20.5" height="4.6"/>
	
		<rect x="56.7" y="168.9" transform="matrix(0.2532 0.9674 -0.9674 0.2532 213.1401 66.1935)" fill="#FFFFFF" width="14" height="4.6"/>
	
		<rect x="50.9" y="174.2" transform="matrix(0.4217 0.9067 -0.9067 0.4217 192.1937 51.653)" fill="#FFFFFF" width="9.4" height="4.6"/>
	
		<rect x="47.4" y="181.2" transform="matrix(0.5768 0.8169 -0.8169 0.5768 170.7282 37.4044)" fill="#FFFFFF" width="3.7" height="4.6"/>
	
		<rect x="31" y="182.8" transform="matrix(0.7136 0.7006 -0.7006 0.7136 140.7361 26.0108)" fill="#FFFFFF" width="15.1" height="4.6"/>
	<polygon fill="#FFFFFF" points="37.3,198.8 20.7,187.4 23.3,183.6 39.9,195 	"/>
	
		<rect x="23.6" y="199.6" transform="matrix(0.9142 0.4052 -0.4052 0.9142 84.3194 5.4424)" fill="#FFFFFF" width="11.5" height="4.6"/>
	<polygon fill="#FFFFFF" points="0.2,206.8 31.3,214.4 32.4,209.9 1.3,202.4 	"/>
	
		<rect x="7.4" y="217.5" transform="matrix(0.9983 5.812820e-02 -5.812820e-02 0.9983 12.8066 -0.734)" fill="#FFFFFF" width="23.2" height="4.6"/>
	
		<rect x="17.3" y="218.9" transform="matrix(0.1206 0.9927 -0.9927 0.1206 245.7763 182.9319)" fill="#FFFFFF" width="4.6" height="22.6"/>
	
		<rect x="27.8" y="235.2" transform="matrix(0.296 0.9552 -0.9552 0.296 248.3331 138.6378)" fill="#FFFFFF" width="4.6" height="5.3"/>
	
		<rect x="25.1" y="239.6" transform="matrix(0.4623 0.8867 -0.8867 0.4623 235.6534 109.7006)" fill="#FFFFFF" width="4.6" height="19"/>
	
		<rect x="29.9" y="247.9" transform="matrix(0.6129 0.7901 -0.7901 0.6129 216.4234 74.4498)" fill="#FFFFFF" width="4.6" height="20.5"/>
	
		<rect x="37.1" y="255.4" transform="matrix(0.7444 0.6678 -0.6678 0.7444 187.2922 41.5619)" fill="#FFFFFF" width="4.6" height="20"/>
	
		<rect x="48" y="262.3" transform="matrix(0.8515 0.5244 -0.5244 0.8515 147.445 13.2473)" fill="#FFFFFF" width="4.6" height="9.2"/>
	
		<rect x="54.7" y="266.1" transform="matrix(0.9315 0.3638 -0.3638 0.9315 103.9861 -1.8815)" fill="#FFFFFF" width="4.6" height="18"/>
	
		<rect x="64.4" y="268.9" transform="matrix(0.9815 0.1915 -0.1915 0.9815 54.3074 -7.6484)" fill="#FFFFFF" width="4.6" height="16.5"/>
	
		<rect x="74.3" y="269.9" transform="matrix(0.9999 1.338563e-02 -1.338563e-02 0.9999 3.6969 -1.0002)" fill="#FFFFFF" width="4.6" height="11.5"/>
	
		<rect x="75.7" y="277.9" transform="matrix(0.1656 0.9862 -0.9862 0.1656 348.8393 148.1968)" fill="#FFFFFF" width="22.2" height="4.6"/>
	
		<rect x="88.7" y="271.2" transform="matrix(0.3388 0.9408 -0.9408 0.3388 320.3791 91.0749)" fill="#FFFFFF" width="13.4" height="4.6"/>
	<polygon fill="#FFFFFF" points="98.7,264.8 115.4,293.2 119.4,290.9 102.7,262.5 	"/>
	<polygon fill="#FFFFFF" points="108.4,263 105.9,260.4 109.2,257.2 111.8,259.8 	"/>
	
		<rect x="111.8" y="255.2" transform="matrix(0.7735 0.6338 -0.6338 0.7735 190.2172 -17.1962)" fill="#FFFFFF" width="14.8" height="4.6"/>
	
		<rect x="117.3" y="246.9" transform="matrix(0.8742 0.4855 -0.4855 0.8742 136.5507 -28.8703)" fill="#FFFFFF" width="13.4" height="4.6"/>
	
		<rect x="121.4" y="236.9" transform="matrix(0.9469 0.3215 -0.3215 0.9469 83.5052 -27.2896)" fill="#FFFFFF" width="6" height="4.6"/>
	
		<rect x="123.4" y="229.1" transform="matrix(0.9891 0.1473 -0.1473 0.9891 35.5436 -16.9808)" fill="#FFFFFF" width="17.9" height="4.6"/>
	
		<rect x="127.4" y="215.9" transform="matrix(3.180619e-02 0.9995 -0.9995 3.180619e-02 347.0137 84.8588)" fill="#FFFFFF" width="4.6" height="11.4"/>
	
		<rect x="127.7" y="204.7" transform="matrix(0.2096 0.9778 -0.9778 0.2096 309.9777 40.3397)" fill="#FFFFFF" width="4.6" height="14.4"/>
	
		<rect x="122.8" y="198.6" transform="matrix(0.3809 0.9246 -0.9246 0.3809 265.6143 10.3657)" fill="#FFFFFF" width="4.6" height="9.8"/>
	
		<rect x="126.4" y="176" transform="matrix(0.5395 0.842 -0.842 0.5395 219.4553 -20.7037)" fill="#FFFFFF" width="4.6" height="28.5"/>
	
		<rect x="111" y="187.2" transform="matrix(0.6817 0.7316 -0.7316 0.6817 174.8258 -22.5614)" fill="#FFFFFF" width="4.6" height="4.9"/>
	<g>
		<g>
			<polygon fill="#FFFFFF" points="75.6,223.3 73.3,194.4 76.7,194.1 79,223 75.6,223.3 			"/>
		</g>
		<g>
			<polygon fill="#FFFFFF" points="75.7,223.6 68.3,195.6 71.5,194.7 78.9,222.7 75.7,223.6 			"/>
		</g>
		<g>
			<polygon fill="#FFFFFF" points="73.2,218.4 63.5,197.6 66.6,196.2 76.3,216.9 73.2,218.4 			"/>
		</g>
		<g>
			<polygon fill="#FFFFFF" points="72,218.6 59.2,200.5 61.9,198.5 74.8,216.6 72,218.6 			"/>
		</g>
		<g>
			<polygon fill="#FFFFFF" points="76.2,224.4 55.4,204.1 57.8,201.7 78.5,221.9 76.2,224.4 			"/>
		</g>
		<g>
			<polygon fill="#FFFFFF" points="76.4,224.5 52.4,208.3 54.3,205.5 78.3,221.7 76.4,224.5 			"/>
		</g>
		<g>
			<polygon fill="#FFFFFF" points="76.7,224.7 50.2,212.9 51.5,209.9 78,221.6 76.7,224.7 			"/>
		</g>
		<g>
			<polygon fill="#FFFFFF" points="77,224.7 48.8,217.9 49.6,214.7 77.8,221.5 77,224.7 			"/>
		</g>
		<g>
			<polygon fill="#FFFFFF" points="77.3,224.8 48.3,223.1 48.5,219.8 77.5,221.4 77.3,224.8 			"/>
		</g>
		<g>
			<polygon fill="#FFFFFF" points="48.8,228.3 48.4,224.9 77.2,221.4 77.6,224.7 48.8,228.3 			"/>
		</g>
		<g>
			<polygon fill="#FFFFFF" points="50.2,233.3 49.2,230.1 76.9,221.5 77.9,224.7 50.2,233.3 			"/>
		</g>
		<g>
			<polygon fill="#FFFFFF" points="52.4,238 50.9,235 76.6,221.6 78.1,224.5 52.4,238 			"/>
		</g>
		<g>
			<polygon fill="#FFFFFF" points="55.5,242.1 53.4,239.5 76.3,221.7 78.4,224.4 55.5,242.1 			"/>
		</g>
		<g>
			<polygon fill="#FFFFFF" points="59.2,245.7 56.7,243.5 76.1,221.9 78.6,224.1 59.2,245.7 			"/>
		</g>
		<g>
			<polygon fill="#FFFFFF" points="63.6,248.6 60.7,246.8 75.9,222.1 78.8,223.9 63.6,248.6 			"/>
		</g>
		<g>
			<polygon fill="#FFFFFF" points="68.3,250.6 65.2,249.4 75.7,222.4 78.9,223.6 68.3,250.6 			"/>
		</g>
		<g>
			<polygon fill="#FFFFFF" points="73.4,251.8 70.1,251.1 75.6,222.7 78.9,223.3 73.4,251.8 			"/>
		</g>
		<g>
			<polygon fill="#FFFFFF" points="78.6,252 75.2,252 75.6,223 79,223 78.6,252 			"/>
		</g>
		<g>
			<polygon fill="#FFFFFF" points="80.4,251.9 75.6,223.3 78.9,222.7 83.7,251.3 80.4,251.9 			"/>
		</g>
		<g>
			<polygon fill="#FFFFFF" points="85.5,250.9 75.7,223.6 78.8,222.4 88.6,249.7 85.5,250.9 			"/>
		</g>
		<g>
			<polygon fill="#FFFFFF" points="90.3,248.9 75.8,223.9 78.7,222.2 93.2,247.3 90.3,248.9 			"/>
		</g>
		<g>
			<polygon fill="#FFFFFF" points="94.7,246.2 75.9,224.1 78.5,221.9 97.3,244 94.7,246.2 			"/>
		</g>
		<g>
			<polygon fill="#FFFFFF" points="98.6,242.7 76.1,224.3 78.3,221.7 100.7,240.1 98.6,242.7 			"/>
		</g>
		<g>
			<polygon fill="#FFFFFF" points="101.7,238.6 76.4,224.5 78,221.6 103.4,235.7 101.7,238.6 			"/>
		</g>
		<g>
			<polygon fill="#FFFFFF" points="104.1,234 76.7,224.6 77.7,221.5 105.2,230.8 104.1,234 			"/>
		</g>
		<g>
			<polygon fill="#FFFFFF" points="105.6,229 76.9,224.7 77.4,221.4 106.1,225.7 105.6,229 			"/>
		</g>
		<g>
			<polygon fill="#FFFFFF" points="77.2,224.8 77.1,221.4 106.1,220.5 106.2,223.9 77.2,224.8 			"/>
		</g>
		<g>
			<polygon fill="#FFFFFF" points="77.5,224.7 76.8,221.5 105.2,215.4 105.9,218.7 77.5,224.7 			"/>
		</g>
		<g>
			<polygon fill="#FFFFFF" points="77.8,224.7 76.6,221.6 103.4,210.6 104.7,213.7 77.8,224.7 			"/>
		</g>
		<g>
			<polygon fill="#FFFFFF" points="78.1,224.6 76.3,221.7 100.7,206.1 102.5,208.9 78.1,224.6 			"/>
		</g>
		<g>
			<polygon fill="#FFFFFF" points="78.4,224.4 76.1,221.9 97.3,202.2 99.6,204.7 78.4,224.4 			"/>
		</g>
		<g>
			<polygon fill="#FFFFFF" points="78.6,224.2 75.9,222.1 93.3,198.9 96,201 78.6,224.2 			"/>
		</g>
		<g>
			<polygon fill="#FFFFFF" points="78.7,223.9 75.7,222.4 88.7,196.5 91.7,198 78.7,223.9 			"/>
		</g>
		<g>
			<polygon fill="#FFFFFF" points="78.9,223.6 75.6,222.7 83.8,194.9 87,195.8 78.9,223.6 			"/>
		</g>
		<g>
			<polygon fill="#FFFFFF" points="78.9,223.4 75.6,223 78.6,194.2 82,194.5 78.9,223.4 			"/>
		</g>
	</g>
	<g>
		<path fill="#FFFFFF" d="M182.7,207c0,1.4-0.2,2.8-0.7,4c-0.5,1.2-1.2,2.3-2.1,3.2s-2,1.6-3.3,2.2c-1.3,0.5-2.7,0.8-4.2,0.8
			c-1.6,0-3-0.3-4.2-0.8c-1.3-0.5-2.4-1.2-3.3-2.2c-0.9-0.9-1.6-2-2.1-3.2c-0.5-1.2-0.7-2.6-0.7-4c0-1.4,0.2-2.8,0.7-4
			c0.5-1.2,1.2-2.3,2.1-3.2c0.9-0.9,2-1.6,3.3-2.2c1.3-0.5,2.7-0.8,4.2-0.8c1.6,0,3,0.3,4.2,0.8c1.3,0.5,2.4,1.2,3.3,2.2
			c0.9,0.9,1.6,2,2.1,3.2C182.4,204.2,182.7,205.5,182.7,207z M177.9,207c0-1-0.1-1.9-0.4-2.7c-0.3-0.8-0.6-1.5-1.1-2
			c-0.5-0.5-1.1-1-1.8-1.3c-0.7-0.3-1.5-0.4-2.4-0.4c-0.9,0-1.7,0.1-2.4,0.4c-0.7,0.3-1.3,0.7-1.8,1.3c-0.5,0.5-0.8,1.2-1.1,2
			c-0.3,0.8-0.4,1.7-0.4,2.7c0,1,0.1,1.9,0.4,2.7c0.3,0.8,0.6,1.5,1.1,2c0.5,0.5,1.1,1,1.8,1.3c0.7,0.3,1.5,0.4,2.4,0.4
			c0.9,0,1.7-0.1,2.4-0.4c0.7-0.3,1.3-0.7,1.8-1.3c0.5-0.5,0.8-1.2,1.1-2C177.8,208.9,177.9,208,177.9,207z"/>
		<path fill="#FFFFFF" d="M195.8,210.3v6.7h-4.6v-20h7c1.4,0,2.6,0.2,3.6,0.5c1,0.3,1.8,0.8,2.5,1.4c0.7,0.6,1.1,1.3,1.4,2.1
			c0.3,0.8,0.5,1.7,0.5,2.6c0,1-0.2,1.9-0.5,2.7c-0.3,0.8-0.8,1.5-1.5,2.1c-0.7,0.6-1.5,1.1-2.5,1.4c-1,0.3-2.2,0.5-3.6,0.5H195.8z
			 M195.8,206.8h2.4c1.2,0,2.1-0.3,2.6-0.9c0.5-0.6,0.8-1.4,0.8-2.4c0-0.5-0.1-0.9-0.2-1.2c-0.1-0.4-0.3-0.7-0.6-1
			c-0.3-0.3-0.6-0.5-1.1-0.6c-0.4-0.1-0.9-0.2-1.5-0.2h-2.4V206.8z"/>
		<path fill="#FFFFFF" d="M227.8,197v3.6h-8.2v4.7h6.3v3.4h-6.3v4.8h8.2v3.6H215v-20H227.8z"/>
		<path fill="#FFFFFF" d="M239.7,197c0.1,0,0.3,0.1,0.4,0.1c0.1,0.1,0.2,0.1,0.3,0.2c0.1,0.1,0.2,0.2,0.3,0.4l9.5,12
			c0-0.4-0.1-0.8-0.1-1.1c0-0.4,0-0.7,0-1V197h4.1v20h-2.4c-0.4,0-0.7-0.1-0.9-0.2c-0.2-0.1-0.5-0.3-0.7-0.6l-9.4-11.9
			c0,0.3,0.1,0.7,0.1,1c0,0.3,0,0.6,0,0.9V217h-4.1v-20h2.4C239.4,197,239.6,197,239.7,197z"/>
		<path fill="#FFFFFF" d="M280,205.1h0.7c0.7,0,1.2-0.2,1.5-0.6l4.5-6.5c0.2-0.4,0.5-0.6,0.8-0.7c0.3-0.1,0.7-0.2,1.2-0.2h4
			l-5.9,8.1c-0.2,0.3-0.4,0.5-0.7,0.7c-0.2,0.2-0.5,0.4-0.7,0.5c0.3,0.1,0.7,0.3,1,0.5c0.3,0.2,0.6,0.5,0.8,0.9l6,9.3h-4.1
			c-0.3,0-0.5,0-0.7-0.1c-0.2,0-0.3-0.1-0.5-0.2c-0.1-0.1-0.3-0.2-0.4-0.3c-0.1-0.1-0.2-0.2-0.3-0.4l-4.5-6.9
			c-0.2-0.3-0.4-0.4-0.6-0.5c-0.3-0.1-0.6-0.2-1-0.2H280v8.5h-4.6v-20h4.6V205.1z"/>
		<path fill="#FFFFFF" d="M304.2,197c0.1,0,0.3,0.1,0.4,0.1c0.1,0.1,0.2,0.1,0.3,0.2c0.1,0.1,0.2,0.2,0.3,0.4l9.5,12
			c0-0.4-0.1-0.8-0.1-1.1c0-0.4,0-0.7,0-1V197h4.1v20h-2.4c-0.4,0-0.7-0.1-0.9-0.2s-0.5-0.3-0.7-0.6l-9.4-11.9c0,0.3,0.1,0.7,0.1,1
			c0,0.3,0,0.6,0,0.9V217h-4.1v-20h2.4C303.9,197,304.1,197,304.2,197z"/>
		<path fill="#FFFFFF" d="M348,207c0,1.4-0.2,2.8-0.7,4c-0.5,1.2-1.2,2.3-2.1,3.2c-0.9,0.9-2,1.6-3.3,2.2c-1.3,0.5-2.7,0.8-4.2,0.8
			c-1.6,0-3-0.3-4.2-0.8c-1.3-0.5-2.4-1.2-3.3-2.2c-0.9-0.9-1.6-2-2.1-3.2c-0.5-1.2-0.7-2.6-0.7-4c0-1.4,0.2-2.8,0.7-4
			c0.5-1.2,1.2-2.3,2.1-3.2c0.9-0.9,2-1.6,3.3-2.2c1.3-0.5,2.7-0.8,4.2-0.8c1.6,0,3,0.3,4.2,0.8c1.3,0.5,2.4,1.2,3.3,2.2
			c0.9,0.9,1.6,2,2.1,3.2C347.7,204.2,348,205.5,348,207z M343.2,207c0-1-0.1-1.9-0.4-2.7c-0.3-0.8-0.6-1.5-1.1-2
			c-0.5-0.5-1.1-1-1.8-1.3c-0.7-0.3-1.5-0.4-2.4-0.4c-0.9,0-1.7,0.1-2.4,0.4c-0.7,0.3-1.3,0.7-1.8,1.3c-0.5,0.5-0.8,1.2-1.1,2
			c-0.3,0.8-0.4,1.7-0.4,2.7c0,1,0.1,1.9,0.4,2.7c0.3,0.8,0.6,1.5,1.1,2c0.5,0.5,1.1,1,1.8,1.3c0.7,0.3,1.5,0.4,2.4,0.4
			c0.9,0,1.7-0.1,2.4-0.4c0.7-0.3,1.3-0.7,1.8-1.3c0.5-0.5,0.8-1.2,1.1-2C343.1,208.9,343.2,208,343.2,207z"/>
		<path fill="#FFFFFF" d="M355,197h3.9c0.4,0,0.7,0.1,1,0.3c0.3,0.2,0.4,0.4,0.5,0.7l2.7,10.4c0.1,0.3,0.2,0.7,0.3,1.1
			c0.1,0.4,0.2,0.8,0.2,1.2c0.1-0.4,0.2-0.8,0.3-1.2c0.1-0.4,0.2-0.7,0.3-1.1l3.2-10.4c0.1-0.3,0.3-0.5,0.5-0.7
			c0.3-0.2,0.6-0.3,1-0.3h1.4c0.4,0,0.7,0.1,1,0.3s0.4,0.4,0.5,0.7l3.2,10.4c0.1,0.3,0.2,0.7,0.3,1c0.1,0.4,0.2,0.7,0.3,1.2
			c0.1-0.4,0.1-0.8,0.2-1.2c0.1-0.4,0.2-0.7,0.2-1l2.7-10.4c0.1-0.3,0.2-0.5,0.5-0.7c0.3-0.2,0.6-0.3,1-0.3h3.6l-6.2,20h-4.2
			l-3.8-12.4c-0.1-0.2-0.1-0.4-0.2-0.6c-0.1-0.2-0.1-0.5-0.2-0.7c-0.1,0.3-0.1,0.5-0.2,0.7c-0.1,0.2-0.1,0.4-0.2,0.6l-3.8,12.4h-4.2
			L355,197z"/>
		<path fill="#FFFFFF" d="M396.8,213.3h7.4v3.7h-12v-20h4.6V213.3z"/>
		<path fill="#FFFFFF" d="M425.5,197v3.6h-8.2v4.7h6.3v3.4h-6.3v4.8h8.2v3.6h-12.9v-20H425.5z"/>
		<path fill="#FFFFFF" d="M452.6,207c0,1.4-0.2,2.8-0.7,4c-0.5,1.2-1.2,2.3-2.1,3.2c-0.9,0.9-2,1.6-3.3,2.1
			c-1.3,0.5-2.7,0.7-4.2,0.7h-7.8v-20h7.8c1.6,0,3,0.3,4.2,0.8c1.3,0.5,2.4,1.2,3.3,2.1c0.9,0.9,1.6,1.9,2.1,3.2
			C452.3,204.2,452.6,205.5,452.6,207z M447.8,207c0-1-0.1-1.9-0.4-2.7c-0.3-0.8-0.6-1.5-1.1-2c-0.5-0.6-1.1-1-1.8-1.3
			c-0.7-0.3-1.5-0.4-2.4-0.4h-3.1v12.8h3.1c0.9,0,1.7-0.1,2.4-0.4c0.7-0.3,1.3-0.7,1.8-1.3c0.5-0.6,0.8-1.2,1.1-2
			C447.7,208.9,447.8,208,447.8,207z"/>
		<path fill="#FFFFFF" d="M470.5,213.6c0.6,0,1.2-0.1,1.7-0.2c0.5-0.1,1-0.3,1.4-0.4v-3h-2c-0.3,0-0.5-0.1-0.7-0.2
			c-0.2-0.2-0.2-0.4-0.2-0.6v-2.5h7.1v8.4c-0.5,0.4-1,0.7-1.6,1c-0.6,0.3-1.1,0.5-1.8,0.7c-0.6,0.2-1.3,0.3-2,0.4
			c-0.7,0.1-1.5,0.1-2.3,0.1c-1.5,0-2.8-0.3-4.1-0.8c-1.2-0.5-2.3-1.2-3.2-2.1c-0.9-0.9-1.6-2-2.1-3.2c-0.5-1.2-0.8-2.6-0.8-4.1
			c0-1.5,0.2-2.9,0.7-4.1c0.5-1.2,1.2-2.3,2.1-3.2c0.9-0.9,2-1.6,3.3-2.1c1.3-0.5,2.8-0.8,4.4-0.8c0.8,0,1.6,0.1,2.3,0.2
			c0.7,0.1,1.4,0.3,2,0.6c0.6,0.2,1.2,0.5,1.7,0.8c0.5,0.3,1,0.7,1.4,1.1l-1.3,2c-0.1,0.2-0.3,0.3-0.5,0.5s-0.4,0.2-0.6,0.2
			c-0.3,0-0.6-0.1-0.8-0.3c-0.4-0.2-0.7-0.4-1-0.6c-0.3-0.2-0.7-0.3-1-0.4c-0.3-0.1-0.7-0.2-1.1-0.2c-0.4,0-0.8-0.1-1.3-0.1
			c-0.9,0-1.6,0.2-2.3,0.5c-0.7,0.3-1.3,0.7-1.8,1.3c-0.5,0.6-0.9,1.2-1.1,2c-0.3,0.8-0.4,1.7-0.4,2.6c0,1.1,0.1,2,0.4,2.8
			c0.3,0.8,0.7,1.5,1.2,2.1c0.5,0.6,1.1,1,1.8,1.3C468.9,213.5,469.7,213.6,470.5,213.6z"/>
		<path fill="#FFFFFF" d="M499.8,197v3.6h-8.2v4.7h6.3v3.4h-6.3v4.8h8.2v3.6h-12.9v-20H499.8z"/>
	</g>
</g>
</svg>
